<?xml version="1.0" encoding="UTF-8"?>
<svg xmlns="http://www.w3.org/2000/svg" version="1.1" viewBox="0 0 1500 1500">
  <defs>
    <style>
      .cls-1 {
        fill: #2a3e98;
      }

      .cls-1, .cls-2, .cls-3, .cls-4, .cls-5 {
        stroke-miterlimit: 10;
      }

      .cls-1, .cls-3, .cls-4, .cls-5 {
        stroke: #231f20;
      }

      .cls-2 {
        fill: #231f20;
        stroke: #000;
      }

      .cls-6, .cls-7 {
        font-family: Copperplate-Light, Copperplate;
        font-size: 164.05px;
        font-weight: 300;
        letter-spacing: 0em;
      }

      .cls-6, .cls-5 {
        fill: #262262;
      }

      .cls-3 {
        fill: #004538;
      }

      .cls-7, .cls-4 {
        fill: #fff;
      }
    </style>
  </defs>
  <!-- Generator: Adobe Illustrator 28.6.0, SVG Export Plug-In . SVG Version: 1.2.0 Build 709)  -->
  <g>
    <g id="Layer_1">
      <g>
        <g>
          <g id="_x3C_Radial_Repeat_x3E_">
            <polygon class="cls-5" points="269.28 539.22 270.41 538.06 281.74 526.44 282.82 525.33 294.2 513.66 295.24 512.59 306.66 500.88 307.67 500.87 320.27 500.69 332.86 500.51 345.46 500.33 345.46 500.32 358.05 500.14 370.65 499.96 370.46 487.37 370.28 474.77 370.1 462.18 357.51 462.36 344.91 462.54 344.03 462.55 344.9 461.66 356.48 449.78 357.31 448.92 368.94 437 369.73 436.19 381.4 424.22 382.14 423.45 393.85 411.45 394.56 410.72 406.29 398.69 406.98 397.98 406.99 398.68 407.17 411.26 407.35 423.85 407.53 436.45 407.71 449.04 407.89 461.64 408.07 474.23 408.25 486.83 408.44 499.42 408.62 512.02 408.8 524.62 408.98 537.21 396.38 537.39 383.79 537.57 371.19 537.75 358.6 537.93 346 538.12 333.41 538.3 320.81 538.48 308.22 538.66 295.62 538.84 283.02 539.02 270.43 539.2 269.28 539.22"/>
          </g>
          <g id="_x3C_Radial_Repeat_x3E_-2" data-name="_x3C_Radial_Repeat_x3E_">
            <polygon class="cls-5" points="163.63 437.89 165.25 437.86 181.48 437.66 183.03 437.64 199.33 437.43 200.82 437.41 217.18 437.21 217.9 437.91 226.93 446.7 235.96 455.47 245 464.25 245.01 464.25 254.04 473.02 263.07 481.8 271.84 472.77 280.62 463.73 289.4 454.7 280.37 445.93 271.33 437.14 270.7 436.53 271.95 436.51 288.54 436.3 289.73 436.28 306.38 436.08 307.52 436.06 324.23 435.85 325.3 435.83 342.06 435.62 343.08 435.61 359.88 435.4 360.87 435.38 360.39 435.88 351.62 444.91 342.84 453.94 334.06 462.97 325.28 472 316.5 481.04 307.73 490.07 298.95 499.11 290.18 508.14 281.39 517.18 272.61 526.22 263.84 535.25 254.8 526.47 245.77 517.69 236.73 508.91 227.7 500.13 218.66 491.36 209.63 482.58 200.59 473.8 191.56 465.02 182.53 456.24 173.49 447.46 164.46 438.69 163.63 437.89"/>
          </g>
          <g id="_x3C_Radial_Repeat_x3E_-3" data-name="_x3C_Radial_Repeat_x3E_">
            <polygon class="cls-5" points="160.58 291.52 161.74 292.65 173.36 303.98 174.47 305.06 186.14 316.44 187.21 317.48 198.92 328.9 198.93 329.91 199.11 342.51 199.29 355.1 199.47 367.7 199.48 367.7 199.66 380.29 199.84 392.89 212.43 392.7 225.03 392.52 237.62 392.34 237.44 379.75 237.26 367.15 237.25 366.27 238.14 367.14 250.02 378.72 250.88 379.55 262.8 391.18 263.61 391.97 275.58 403.64 276.35 404.38 288.35 416.09 289.08 416.8 301.11 428.53 301.82 429.22 301.12 429.23 288.54 429.41 275.95 429.59 263.35 429.77 250.76 429.95 238.16 430.13 225.57 430.31 212.97 430.49 200.38 430.68 187.78 430.86 175.18 431.04 162.59 431.22 162.41 418.62 162.23 406.03 162.05 393.43 161.87 380.84 161.68 368.24 161.5 355.65 161.32 343.05 161.14 330.46 160.96 317.86 160.78 305.26 160.6 292.67 160.58 291.52"/>
          </g>
          <g id="_x3C_Radial_Repeat_x3E_-4" data-name="_x3C_Radial_Repeat_x3E_">
            <polygon class="cls-5" points="261.92 185.88 261.94 187.5 262.15 203.72 262.17 205.27 262.37 221.57 262.4 223.06 262.6 239.42 261.89 240.14 253.11 249.18 244.34 258.21 235.55 267.24 235.56 267.25 226.79 276.28 218 285.32 227.04 294.08 236.08 302.87 245.11 311.64 253.88 302.61 262.66 293.58 263.28 292.95 263.29 294.19 263.51 310.78 263.53 311.97 263.73 328.63 263.75 329.76 263.96 346.47 263.98 347.54 264.18 364.31 264.2 365.33 264.41 382.13 264.43 383.12 263.92 382.63 254.9 373.86 245.87 365.08 236.83 356.3 227.8 347.53 218.77 338.75 209.74 329.97 200.7 321.19 191.66 312.42 182.63 303.64 173.59 294.86 164.56 286.08 173.34 277.04 182.12 268.01 190.9 258.98 199.68 249.95 208.45 240.9 217.23 231.87 226.01 222.84 234.78 213.81 243.57 204.77 252.35 195.73 261.12 186.7 261.92 185.88"/>
          </g>
          <g id="_x3C_Radial_Repeat_x3E_-5" data-name="_x3C_Radial_Repeat_x3E_">
            <polygon class="cls-5" points="408.28 182.83 407.15 183.99 395.82 195.61 394.74 196.72 383.36 208.39 382.32 209.46 370.9 221.17 369.89 221.18 357.29 221.36 344.7 221.54 332.1 221.72 332.1 221.73 319.51 221.91 306.91 222.09 307.1 234.68 307.28 247.28 307.46 259.87 320.05 259.69 332.65 259.51 333.53 259.5 332.66 260.39 321.08 272.27 320.25 273.13 308.62 285.05 307.83 285.86 296.16 297.83 295.42 298.6 283.71 310.6 283 311.33 271.27 323.36 270.58 324.07 270.57 323.37 270.39 310.79 270.21 298.2 270.03 285.6 269.85 273.01 269.67 260.41 269.49 247.82 269.31 235.22 269.12 222.63 268.94 210.03 268.76 197.43 268.58 184.84 281.18 184.66 293.77 184.48 306.37 184.3 318.96 184.12 331.56 183.93 344.15 183.75 356.75 183.57 369.34 183.39 381.94 183.21 394.54 183.03 407.13 182.85 408.28 182.83"/>
          </g>
          <g id="_x3C_Radial_Repeat_x3E_-6" data-name="_x3C_Radial_Repeat_x3E_">
            <polygon class="cls-5" points="513.93 284.16 512.31 284.19 496.09 284.39 494.54 284.41 478.24 284.62 476.75 284.64 460.39 284.84 459.67 284.14 450.63 275.35 441.6 266.58 432.57 257.8 432.56 257.8 423.53 249.03 414.49 240.25 405.72 249.28 396.94 258.32 388.17 267.35 397.2 276.12 406.23 284.91 406.86 285.52 405.62 285.54 389.03 285.75 387.83 285.77 371.18 285.97 370.05 285.99 353.33 286.2 352.27 286.22 335.5 286.43 334.48 286.44 317.68 286.65 316.69 286.67 317.18 286.17 325.95 277.14 334.72 268.11 343.51 259.08 352.28 250.05 361.06 241.01 369.84 231.98 378.62 222.94 387.39 213.91 396.17 204.87 404.95 195.83 413.73 186.8 422.77 195.58 431.8 204.36 440.83 213.14 449.86 221.92 458.91 230.69 467.94 239.47 476.97 248.25 486 257.03 495.04 265.81 504.08 274.59 513.11 283.37 513.93 284.16"/>
          </g>
          <g id="_x3C_Radial_Repeat_x3E_-7" data-name="_x3C_Radial_Repeat_x3E_">
            <polygon class="cls-5" points="516.98 430.53 515.82 429.4 504.2 418.07 503.09 416.99 491.42 405.61 490.35 404.57 478.64 393.15 478.63 392.14 478.45 379.54 478.27 366.95 478.09 354.35 478.08 354.35 477.9 341.76 477.72 329.16 465.13 329.35 452.53 329.53 439.94 329.71 440.12 342.3 440.3 354.9 440.31 355.78 439.42 354.91 427.54 343.33 426.68 342.5 414.76 330.87 413.95 330.08 401.98 318.41 401.21 317.67 389.21 305.96 388.48 305.25 376.45 293.52 375.74 292.83 376.44 292.82 389.02 292.64 401.61 292.46 414.21 292.28 426.8 292.1 439.4 291.92 451.99 291.74 464.59 291.56 477.18 291.37 489.78 291.19 502.38 291.01 514.97 290.83 515.15 303.43 515.33 316.02 515.51 328.62 515.69 341.21 515.88 353.81 516.06 366.4 516.24 379 516.42 391.59 516.6 404.19 516.78 416.79 516.96 429.38 516.98 430.53"/>
          </g>
          <g id="_x3C_Radial_Repeat_x3E_-8" data-name="_x3C_Radial_Repeat_x3E_">
            <polygon class="cls-5" points="415.64 536.17 415.62 534.56 415.42 518.33 415.4 516.78 415.19 500.48 415.17 498.99 414.97 482.63 415.67 481.91 424.45 472.87 433.23 463.84 442.01 454.81 442 454.8 450.78 445.77 459.56 436.73 450.53 427.97 441.49 419.18 432.46 410.41 423.68 419.44 414.9 428.48 414.29 429.1 414.27 427.86 414.06 411.27 414.04 410.08 413.83 393.42 413.82 392.29 413.61 375.58 413.59 374.51 413.38 357.74 413.37 356.72 413.15 339.92 413.14 338.93 413.64 339.42 422.67 348.19 431.7 356.97 440.73 365.75 449.76 374.52 458.8 383.31 467.83 392.08 476.87 400.86 485.9 409.63 494.94 418.41 503.98 427.2 513.01 435.97 504.22 445.01 495.45 454.04 486.67 463.07 477.89 472.1 469.12 481.15 460.34 490.18 451.56 499.21 442.78 508.24 434 517.28 425.22 526.32 416.44 535.35 415.64 536.17"/>
          </g>
        </g>
        <g>
          <path class="cls-1" d="M384.25,403.52l-.16.18c-2.13,2.17-5.56,2.7-8.6,2.83-9.22.31-18.51.57-27.59.9-15.16.25-15.16,1.31-17.73,14.9-.56,1.73-1.26,2.5-1.91,1.86-1.95-1.85-1.82-10.71-5-13.61-3.7-3.5-10.55-1.68-15.36-2-10.99.15-2.73-7.34,2.01-12.53,4.42-4.89,9.08-10.07,15.65-11.79,8.36-1.9,18.17-.92,26.61-1.68,10.2-.46,10.52-9.71,8.88-17.66-.7-3.27-3.07-6.02-6.44-6.59-7.26-.9-6.57-3.32-2.27-8.18,7.18-7.88,14.26-15.45,21.52-23.35,2.4-2.22,5.17-6.7,8.54-6.51,2.55,1.37,1.96,6.56,2.21,9.4.62,20.87,1.24,41.65,1.85,62.5.15,3.76.28,8.5-2.19,11.32Z"/>
          <path class="cls-1" d="M293.56,317.87c2.14-2.16,5.59-2.65,8.63-2.76,9.22-.24,18.51-.41,27.6-.67,15.16-.1,15.17-1.18,17.85-14.74.58-1.73,1.29-2.49,1.94-1.85,1.92,1.87,1.73,10.73,4.88,13.66,3.67,3.53,10.55,1.78,15.35,2.13,11-.06,2.67,7.36-2.12,12.5-4.46,4.85-9.16,10-15.76,11.66-8.38,1.82-18.17.75-26.62,1.45-10.21.38-10.61,9.63-9.03,17.59.68,3.27,3.01,6.05,6.38,6.65,7.25.95,6.54,3.38,2.21,8.2-7.25,7.81-14.4,15.33-21.72,23.15-2.42,2.22-5.24,6.66-8.59,6.44-2.55-1.39-1.91-6.58-2.14-9.43-.43-20.87-.87-41.65-1.3-62.52-.11-3.76-.21-8.49,2.29-11.29l.16-.17Z"/>
        </g>
        <text class="cls-6" transform="translate(517.5 407.43)"><tspan x="0" y="0">FIN SYNC</tspan></text>
      </g>
      <rect class="cls-2" y="718.05" width="1500" height="781.95"/>
      <g>
        <g>
          <g id="_x3C_Radial_Repeat_x3E_-9" data-name="_x3C_Radial_Repeat_x3E_">
            <polygon class="cls-4" points="269.28 1274.68 270.41 1273.52 281.74 1261.9 282.82 1260.79 294.2 1249.12 295.24 1248.05 306.66 1236.34 307.67 1236.33 320.27 1236.15 332.86 1235.97 345.46 1235.79 345.46 1235.78 358.05 1235.6 370.65 1235.42 370.46 1222.83 370.28 1210.23 370.1 1197.64 357.51 1197.82 344.91 1198 344.03 1198.01 344.9 1197.12 356.48 1185.24 357.31 1184.38 368.94 1172.46 369.73 1171.65 381.4 1159.68 382.14 1158.91 393.85 1146.91 394.56 1146.18 406.29 1134.15 406.98 1133.44 406.99 1134.14 407.17 1146.72 407.35 1159.31 407.53 1171.91 407.71 1184.5 407.89 1197.1 408.07 1209.69 408.25 1222.29 408.44 1234.88 408.62 1247.48 408.8 1260.08 408.98 1272.67 396.38 1272.85 383.79 1273.03 371.19 1273.21 358.6 1273.39 346 1273.58 333.41 1273.76 320.81 1273.94 308.22 1274.12 295.62 1274.3 283.02 1274.48 270.43 1274.66 269.28 1274.68"/>
          </g>
          <g id="_x3C_Radial_Repeat_x3E_-10" data-name="_x3C_Radial_Repeat_x3E_">
            <polygon class="cls-4" points="163.63 1173.34 165.25 1173.32 181.48 1173.12 183.03 1173.1 199.33 1172.89 200.82 1172.87 217.18 1172.67 217.9 1173.37 226.93 1182.15 235.96 1190.93 245 1199.71 245.01 1199.71 254.04 1208.48 263.07 1217.26 271.84 1208.23 280.62 1199.19 289.4 1190.16 280.37 1181.38 271.33 1172.6 270.7 1171.99 271.95 1171.97 288.54 1171.76 289.73 1171.74 306.38 1171.53 307.52 1171.52 324.23 1171.31 325.3 1171.29 342.06 1171.08 343.08 1171.07 359.88 1170.86 360.87 1170.84 360.39 1171.34 351.62 1180.37 342.84 1189.4 334.06 1198.43 325.28 1207.46 316.5 1216.5 307.73 1225.53 298.95 1234.57 290.18 1243.6 281.39 1252.64 272.61 1261.68 263.84 1270.71 254.8 1261.92 245.77 1253.15 236.73 1244.37 227.7 1235.59 218.66 1226.82 209.63 1218.04 200.59 1209.26 191.56 1200.48 182.53 1191.7 173.49 1182.92 164.46 1174.14 163.63 1173.34"/>
          </g>
          <g id="_x3C_Radial_Repeat_x3E_-11" data-name="_x3C_Radial_Repeat_x3E_">
            <polygon class="cls-4" points="160.58 1026.98 161.74 1028.11 173.36 1039.44 174.47 1040.52 186.14 1051.9 187.21 1052.94 198.92 1064.36 198.93 1065.37 199.11 1077.97 199.29 1090.56 199.47 1103.16 199.48 1103.16 199.66 1115.75 199.84 1128.35 212.43 1128.16 225.03 1127.98 237.62 1127.8 237.44 1115.21 237.26 1102.61 237.25 1101.73 238.14 1102.6 250.02 1114.18 250.88 1115.01 262.8 1126.64 263.61 1127.43 275.58 1139.1 276.35 1139.84 288.35 1151.55 289.08 1152.26 301.11 1163.99 301.82 1164.68 301.12 1164.69 288.54 1164.87 275.95 1165.05 263.35 1165.23 250.76 1165.41 238.16 1165.59 225.57 1165.77 212.97 1165.95 200.38 1166.14 187.78 1166.32 175.18 1166.5 162.59 1166.68 162.41 1154.08 162.23 1141.49 162.05 1128.89 161.87 1116.3 161.68 1103.7 161.5 1091.11 161.32 1078.51 161.14 1065.92 160.96 1053.32 160.78 1040.72 160.6 1028.13 160.58 1026.98"/>
          </g>
          <g id="_x3C_Radial_Repeat_x3E_-12" data-name="_x3C_Radial_Repeat_x3E_">
            <polygon class="cls-4" points="261.92 921.33 261.94 922.95 262.15 939.18 262.17 940.73 262.37 957.03 262.4 958.52 262.6 974.88 261.89 975.6 253.11 984.63 244.34 993.66 235.55 1002.7 235.56 1002.71 226.79 1011.74 218 1020.77 227.04 1029.54 236.08 1038.33 245.11 1047.1 253.88 1038.07 262.66 1029.03 263.28 1028.4 263.29 1029.65 263.51 1046.24 263.53 1047.43 263.73 1064.08 263.75 1065.22 263.96 1081.93 263.98 1083 264.18 1099.77 264.2 1100.78 264.41 1117.58 264.43 1118.57 263.92 1118.09 254.9 1109.32 245.87 1100.54 236.83 1091.76 227.8 1082.99 218.77 1074.2 209.74 1065.43 200.7 1056.65 191.66 1047.88 182.63 1039.1 173.59 1030.31 164.56 1021.54 173.34 1012.5 182.12 1003.47 190.9 994.43 199.68 985.41 208.45 976.36 217.23 967.33 226.01 958.29 234.78 949.26 243.57 940.23 252.35 931.19 261.12 922.16 261.92 921.33"/>
          </g>
          <g id="_x3C_Radial_Repeat_x3E_-13" data-name="_x3C_Radial_Repeat_x3E_">
            <polygon class="cls-4" points="408.28 918.29 407.15 919.45 395.82 931.07 394.74 932.18 383.36 943.85 382.32 944.92 370.9 956.63 369.89 956.64 357.29 956.82 344.7 957 332.1 957.18 332.1 957.19 319.51 957.37 306.91 957.55 307.1 970.14 307.28 982.74 307.46 995.33 320.05 995.15 332.65 994.97 333.53 994.96 332.66 995.85 321.08 1007.73 320.25 1008.59 308.62 1020.51 307.83 1021.32 296.16 1033.29 295.42 1034.06 283.71 1046.06 283 1046.79 271.27 1058.82 270.58 1059.53 270.57 1058.83 270.39 1046.25 270.21 1033.66 270.03 1021.06 269.85 1008.47 269.67 995.87 269.49 983.28 269.31 970.68 269.12 958.09 268.94 945.49 268.76 932.89 268.58 920.3 281.18 920.12 293.77 919.94 306.37 919.76 318.96 919.58 331.56 919.39 344.15 919.21 356.75 919.03 369.34 918.85 381.94 918.67 394.54 918.49 407.13 918.31 408.28 918.29"/>
          </g>
          <g id="_x3C_Radial_Repeat_x3E_-14" data-name="_x3C_Radial_Repeat_x3E_">
            <polygon class="cls-4" points="513.93 1019.62 512.31 1019.64 496.09 1019.85 494.54 1019.87 478.24 1020.08 476.75 1020.1 460.39 1020.3 459.67 1019.59 450.63 1010.81 441.6 1002.04 432.57 993.25 432.56 993.26 423.53 984.49 414.49 975.7 405.72 984.74 396.94 993.78 388.17 1002.81 397.2 1011.58 406.23 1020.37 406.86 1020.98 405.62 1020.99 389.03 1021.21 387.83 1021.23 371.18 1021.43 370.05 1021.45 353.33 1021.66 352.27 1021.68 335.5 1021.89 334.48 1021.9 317.68 1022.11 316.69 1022.13 317.18 1021.62 325.95 1012.6 334.72 1003.57 343.51 994.53 352.28 985.5 361.06 976.47 369.84 967.44 378.62 958.4 387.39 949.36 396.17 940.33 404.95 931.29 413.73 922.26 422.77 931.04 431.79 939.82 440.83 948.6 449.86 957.38 458.91 966.15 467.94 974.93 476.97 983.71 486 992.48 495.04 1001.27 504.08 1010.05 513.1 1018.82 513.93 1019.62"/>
          </g>
          <g id="_x3C_Radial_Repeat_x3E_-15" data-name="_x3C_Radial_Repeat_x3E_">
            <polygon class="cls-4" points="516.98 1165.98 515.82 1164.85 504.2 1153.52 503.09 1152.44 491.42 1141.06 490.35 1140.02 478.64 1128.6 478.63 1127.59 478.45 1114.99 478.27 1102.4 478.09 1089.8 478.08 1089.8 477.9 1077.21 477.72 1064.61 465.13 1064.8 452.53 1064.98 439.94 1065.16 440.12 1077.75 440.3 1090.35 440.31 1091.23 439.42 1090.36 427.54 1078.78 426.68 1077.95 414.76 1066.32 413.95 1065.53 401.98 1053.86 401.21 1053.12 389.21 1041.41 388.48 1040.7 376.45 1028.97 375.74 1028.28 376.44 1028.27 389.02 1028.09 401.61 1027.91 414.21 1027.73 426.8 1027.55 439.4 1027.37 451.99 1027.19 464.59 1027.01 477.18 1026.82 489.78 1026.64 502.38 1026.46 514.97 1026.28 515.15 1038.88 515.33 1051.47 515.51 1064.07 515.69 1076.66 515.88 1089.26 516.06 1101.85 516.24 1114.45 516.42 1127.04 516.6 1139.64 516.78 1152.24 516.96 1164.83 516.98 1165.98"/>
          </g>
          <g id="_x3C_Radial_Repeat_x3E_-16" data-name="_x3C_Radial_Repeat_x3E_">
            <polygon class="cls-4" points="415.64 1271.63 415.62 1270.01 415.42 1253.79 415.4 1252.24 415.19 1235.94 415.17 1234.45 414.97 1218.09 415.67 1217.37 424.46 1208.33 433.23 1199.3 442.01 1190.27 442.01 1190.26 450.78 1181.23 459.56 1172.19 450.53 1163.42 441.49 1154.64 432.46 1145.87 423.68 1154.9 414.9 1163.93 414.29 1164.56 414.27 1163.32 414.06 1146.73 414.04 1145.54 413.83 1128.88 413.82 1127.75 413.61 1111.04 413.59 1109.97 413.38 1093.2 413.37 1092.18 413.16 1075.38 413.14 1074.39 413.64 1074.88 422.67 1083.65 431.7 1092.42 440.73 1101.21 449.76 1109.98 458.8 1118.76 467.83 1127.54 476.87 1136.32 485.9 1145.09 494.94 1153.87 503.98 1162.65 513.01 1171.43 504.22 1180.47 495.45 1189.5 486.67 1198.53 477.89 1207.56 469.12 1216.61 460.34 1225.64 451.56 1234.67 442.78 1243.7 434 1252.74 425.22 1261.78 416.44 1270.81 415.64 1271.63"/>
          </g>
        </g>
        <g>
          <path class="cls-3" d="M384.25,1138.98l-.16.18c-2.13,2.17-5.56,2.7-8.6,2.83-9.22.31-18.51.57-27.59.9-15.16.25-15.16,1.31-17.73,14.9-.56,1.73-1.26,2.5-1.91,1.86-1.95-1.85-1.82-10.71-5-13.61-3.7-3.5-10.55-1.68-15.36-2-10.99.15-2.73-7.34,2.01-12.53,4.42-4.89,9.08-10.07,15.65-11.79,8.36-1.9,18.17-.92,26.61-1.68,10.2-.46,10.52-9.71,8.88-17.66-.7-3.27-3.07-6.02-6.44-6.59-7.26-.9-6.57-3.32-2.27-8.18,7.18-7.88,14.26-15.45,21.52-23.35,2.4-2.22,5.17-6.7,8.54-6.51,2.55,1.37,1.96,6.56,2.21,9.4.62,20.87,1.24,41.65,1.85,62.5.15,3.76.28,8.5-2.19,11.32Z"/>
          <path class="cls-3" d="M293.56,1053.33c2.14-2.16,5.59-2.65,8.63-2.76,9.22-.24,18.51-.41,27.6-.67,15.16-.1,15.17-1.18,17.85-14.74.58-1.73,1.29-2.49,1.94-1.85,1.92,1.87,1.73,10.73,4.88,13.66,3.67,3.53,10.55,1.78,15.35,2.13,11-.06,2.67,7.36-2.12,12.5-4.46,4.85-9.16,10-15.76,11.66-8.38,1.82-18.17.75-26.62,1.45-10.21.38-10.61,9.63-9.03,17.59.68,3.27,3.01,6.05,6.38,6.65,7.25.95,6.54,3.38,2.21,8.2-7.25,7.81-14.4,15.33-21.72,23.15-2.42,2.22-5.24,6.66-8.59,6.44-2.55-1.39-1.91-6.58-2.14-9.43-.43-20.87-.87-41.65-1.3-62.52-.11-3.76-.21-8.49,2.29-11.29l.16-.17Z"/>
        </g>
        <text class="cls-7" transform="translate(517.5 1142.89)"><tspan x="0" y="0">FIN SYNC</tspan></text>
      </g>
    </g>
  </g>
</svg>